<svg width="24" height="24" viewBox="0 0 24 24" fill="none" xmlns="http://www.w3.org/2000/svg">
<path d="M2.33333 10.7922H21.6667M2.33333 10.7922C1.59695 10.7922 1 10.2019 1 9.47365V8.15509C1 7.42687 1.59695 6.83653 2.33333 6.83653H21.6667C22.403 6.83653 23 7.42687 23 8.15509V9.47365C23 10.2019 22.403 10.7922 21.6667 10.7922M2.33333 10.7922L4.44059 20.4397C4.63944 21.3502 5.45366 22 6.3955 22H17.6045C18.5463 22 19.3606 21.3502 19.5594 20.4398L21.6667 10.7922M8.66724 2L6.33333 6.50684M15.6665 2L18.0004 6.50684" stroke="#333333" stroke-width="2" stroke-linecap="round"/>
</svg>
