<svg width="24" height="24" viewBox="0 0 24 24" fill="none" xmlns="http://www.w3.org/2000/svg">
<path d="M22 12C22 14.6522 20.9464 17.1957 19.0711 19.0711C17.1957 20.9464 14.6522 22 12 22M22 12C22 9.34784 20.9464 6.8043 19.0711 4.92893C17.1957 3.05357 14.6522 2 12 2M22 12C22 14.5492 17.5231 15.7063 12 15.7063C6.47692 15.7063 2 14.5492 2 12M22 12C22 9.45077 17.5231 8.29371 12 8.29371C6.47692 8.29371 2 9.45077 2 12M12 22C9.34784 22 6.8043 20.9464 4.92893 19.0711C3.05357 17.1957 2 14.6522 2 12M12 22C14.5492 22 15.7063 17.5231 15.7063 12C15.7063 6.47692 14.5492 2 12 2M12 22C9.45077 22 8.29371 17.5231 8.29371 12C8.29371 6.47692 9.45077 2 12 2M12 2C9.34784 2 6.8043 3.05357 4.92893 4.92893C3.05357 6.8043 2 9.34784 2 12" stroke="black" stroke-width="1.8"/>
</svg>
