<svg width="24" height="24" viewBox="0 0 24 24" fill="none" xmlns="http://www.w3.org/2000/svg">
<path d="M21 21L14.4286 14.4286M3 9.66667C3 10.5421 3.17244 11.4091 3.50747 12.2179C3.8425 13.0267 4.33356 13.7617 4.95262 14.3807C5.57168 14.9998 6.30661 15.4908 7.11544 15.8259C7.92428 16.1609 8.79119 16.3333 9.66667 16.3333C10.5421 16.3333 11.4091 16.1609 12.2179 15.8259C13.0267 15.4908 13.7617 14.9998 14.3807 14.3807C14.9998 13.7617 15.4908 13.0267 15.8259 12.2179C16.1609 11.4091 16.3333 10.5421 16.3333 9.66667C16.3333 8.79119 16.1609 7.92428 15.8259 7.11544C15.4908 6.30661 14.9998 5.57168 14.3807 4.95262C13.7617 4.33356 13.0267 3.8425 12.2179 3.50747C11.4091 3.17244 10.5421 3 9.66667 3C8.79119 3 7.92428 3.17244 7.11544 3.50747C6.30661 3.8425 5.57168 4.33356 4.95262 4.95262C4.33356 5.57168 3.8425 6.30661 3.50747 7.11544C3.17244 7.92428 3 8.79119 3 9.66667Z" stroke="black" stroke-width="2" stroke-linecap="round" stroke-linejoin="round"/>
</svg>
